<svg width="1000" height="900" viewBox="0 0 355 325" fill="none" xmlns="http://www.w3.org/2000/svg">
<path class="blueBg" opacity="0.35" d="M295.524 9.70813C295.524 9.70813 235.83 32.2009 174.984 32.2009C114.138 32.2009 52.1373 9.70813 52.1373 9.70813C47.5484 9.70813 43.1475 11.531 39.9027 14.7759C36.6579 18.0207 34.835 22.4216 34.835 27.0105C34.835 27.0105 59.6349 89.8758 59.6349 152.162C59.6349 214.449 34.835 276.164 34.835 276.164C34.835 280.753 36.6579 285.154 39.9027 288.399C43.1475 291.644 47.5484 293.466 52.1373 293.466C52.1373 293.466 114.138 269.82 174.984 269.82C235.831 269.82 295.524 293.466 295.524 293.466C305.08 293.466 312.826 276.164 312.826 276.164C312.826 276.164 354.352 210.992 354.352 148.705C354.352 86.4184 312.826 27.0119 312.826 27.0119C312.826 27.0119 305.08 9.70813 295.524 9.70813Z" fill="url(#paint0_linear)"/>
<path opacity="0.9" d="M281.404 40.2755C281.404 40.2755 221.711 62.7683 160.865 62.7683C100.018 62.7683 38.0177 40.2755 38.0177 40.2755C33.4288 40.2755 29.0279 42.0984 25.7831 45.3432C22.5383 48.5881 20.7153 52.989 20.7153 57.5778C20.7153 57.5778 45.5152 120.443 45.5152 182.73C45.5152 245.016 20.7153 306.732 20.7153 306.732C20.7153 311.32 22.5383 315.721 25.7831 318.966C29.0279 322.211 33.4288 324.034 38.0177 324.034C38.0177 324.034 100.018 300.388 160.865 300.388C221.711 300.388 281.404 324.034 281.404 324.034C290.96 324.034 298.707 306.732 298.707 306.732C298.707 306.732 340.232 241.559 340.232 179.273C340.232 116.986 298.707 57.5793 298.707 57.5793C298.707 57.5793 290.96 40.2755 281.404 40.2755Z" fill="white"/>
<g opacity="0.1">
<path d="M45.1789 182.788C83.9599 182.588 103.35 135.012 90.3797 103.192C86.1172 90.1063 76.8354 79.2471 64.5728 72.9992C52.3102 66.7514 38.0693 65.6256 24.9773 69.8691" fill="#D8F6FF"/>
<path d="M45.1789 182.788C83.9599 182.588 103.35 135.012 90.3797 103.192C86.1172 90.1063 76.8354 79.2471 64.5728 72.9992C52.3102 66.7514 38.0693 65.6256 24.9773 69.8691" stroke="#215C78" stroke-width="33.2171"/>
</g>
<path opacity="0.1" d="M93.0653 34.692C92.9823 34.3104 92.9948 33.9143 93.1017 33.5387C93.2085 33.1631 93.4064 32.8197 93.6778 32.5389C93.9492 32.2581 94.2857 32.0487 94.6575 31.9292C95.0292 31.8096 95.4247 31.7837 95.8089 31.8537L169.764 45.3174C170.186 45.3943 170.58 45.5845 170.903 45.8677C171.226 46.1508 171.466 46.5163 171.598 46.9252C171.729 47.3341 171.747 47.771 171.65 48.1893C171.552 48.6077 171.343 48.9917 171.045 49.3006L113.056 109.292C112.758 109.6 112.381 109.822 111.966 109.934C111.552 110.045 111.114 110.042 110.701 109.925C110.288 109.807 109.915 109.579 109.621 109.266C109.327 108.953 109.123 108.566 109.032 108.146L93.0653 34.692Z" fill="#004CFF"/>
<path d="M250.785 118.802L271.535 130.782C273.805 132.092 276.707 131.315 278.018 129.045L317.105 61.3437C318.415 59.074 317.638 56.1718 315.368 54.8614L294.618 42.8812C292.348 41.5708 289.446 42.3485 288.136 44.6181L249.048 112.319C247.738 114.589 248.515 117.491 250.785 118.802Z" fill="#8CE6FF"/>
<path d="M254.934 132.856L260.687 136.178C261.822 136.833 263.273 136.444 263.929 135.309L268.199 127.912C268.854 126.777 268.466 125.326 267.331 124.671L261.577 121.349C260.443 120.694 258.992 121.083 258.336 122.218L254.066 129.615C253.41 130.75 253.799 132.201 254.934 132.856Z" fill="#8CE6FF"/>
<defs>
<linearGradient id="paint0_linear" x1="194.593" y1="9.70813" x2="194.593" y2="293.466" gradientUnits="userSpaceOnUse">
<stop stop-color="#00D4FF"/>
<stop offset="1" stop-color="#004CFF"/>
</linearGradient>
</defs>
</svg>
