<svg xmlns="http://www.w3.org/2000/svg" width="163.839" height="163.839" fill-rule="evenodd" clip-rule="evenodd" image-rendering="optimizeQuality" shape-rendering="geometricPrecision" text-rendering="geometricPrecision" viewBox="0 0 4335 4335"><path fill="#b39451" d="M571 1262h3663v2083H571V1262zm82 82h3507v1928H653V1344z"/><circle cx="2402" cy="2304" r="786" fill="#fefefe"/><path fill="#b39451" d="M2071 1990h184v-146h88l2 145 64 1v-146h89l1 149c141 11 262 84 217 218-14 41-37 60-67 84l13 8c6 3 11 4 18 7 89 42 109 141 77 231-36 100-129 128-258 129v149h-88l-2-149-64-1v149h-89l-1-149h-178l3-96c123-1 106 38 106-249v-175c0-34 5-56-28-62-21-4-64-1-88-2v-94zm264-240c-174 22-301 108-379 203-88 105-157 261-134 448 37 298 305 549 647 509 299-35 549-303 513-644-33-321-332-557-648-516z"/><path fill="#fcfdfe" d="M2347 2365c96-6 256-17 246 100-9 110-142 103-248 97l2-196zm-2-274c88-5 210-8 204 93s-107 93-204 87v-180zm-275-7c24 0 67-2 88 2 33 6 28 28 28 62v175c0 287 17 248-106 249l-3 96h178l1 149h89v-149l64 1 2 149h88v-149c129 0 222-29 258-129 32-90 12-189-77-231-7-3-11-4-18-7l-13-8c29-24 53-43 67-84 44-134-76-206-217-218l-1-149h-89v146l-64-1-2-145h-88v146h-184v94z"/><path fill="#b39451" d="M1659 2387c-14-164 30-315 109-448 63-106 176-214 289-269 198-97 399-117 611-37 102 39 164 86 233 142 52 42 134 148 162 208 94 202 120 393 37 612-39 102-85 163-142 233-44 55-145 130-209 162-93 46-171 74-289 84-113 10-226-10-322-47-47-18-85-38-126-62-199-116-333-345-353-578zm1555 4c27-272-104-539-309-702-122-97-273-157-439-171-127-11-249 12-354 50-103 38-173 89-253 154-31 25-71 72-98 105-96 120-157 275-171 440-21 239 65 437 204 606 21 25 80 77 106 98 220 173 526 224 792 121 143-55 258-141 351-259 100-127 154-269 171-442z"/><path fill="#b39451" d="M2346 2561c106 6 239 13 248-97 10-116-150-106-246-100l-2 196zM2346 2271c96 6 198 14 204-87s-116-98-204-93v180z"/><path fill="#9f7d32" d="M2414 1843h84l1 149c141 11 262 84 217 218-14 41-37 60-67 84l13 8c6 3 11 4 18 7 89 42 109 141 77 231-36 100-129 128-258 129v149h-85v97c18 0 37-2 55-4 299-35 549-303 513-644-31-294-283-516-569-521v98z"/><path fill="#9f7d32" d="M2414 1584c83 1 167 17 253 50 102 39 164 86 233 142 52 42 134 148 162 208 94 202 120 393 37 612-39 102-85 163-142 233-44 55-145 130-209 162-93 46-171 74-289 84-15 1-30 2-45 2v69c94-1 188-18 278-53 143-55 258-141 351-259 100-127 154-269 171-442 27-272-104-539-309-702-122-97-273-157-439-171-17-1-35-2-52-3v69z"/><path fill="#9f7d32" d="M2414 2564c88 1 172-13 180-100 8-92-91-104-180-103v202zM2414 2274c71 0 131-13 135-90 4-76-64-93-135-95v185z"/><path fill="#b39451" fill-rule="nonzero" d="M909 1783h-51v-192c-19 17-40 30-66 39v-46c13-4 28-13 43-25 16-12 26-26 32-42h41v267zm162-267c26 0 46 9 60 28 17 22 26 58 26 108s-9 87-26 109c-14 18-34 27-60 27s-47-10-62-30c-16-20-24-55-24-106 0-50 9-86 26-108 14-18 34-27 60-27zm0 42c-6 0-11 2-16 6s-8 11-11 21c-3 13-5 35-5 67 0 31 2 53 5 64 3 12 7 19 12 23s10 6 16 6 11-2 16-6 8-11 11-21c3-13 5-35 5-66s-2-53-5-64c-3-12-7-20-12-23-5-4-10-6-16-6zm206-42c26 0 46 9 60 28 17 22 26 58 26 108s-9 87-26 109c-14 18-34 27-60 27s-47-10-62-30c-16-20-24-55-24-106 0-50 9-86 26-108 14-18 34-27 60-27zm0 42c-6 0-11 2-16 6s-8 11-11 21c-3 13-5 35-5 67 0 31 2 53 5 64 3 12 7 19 12 23s10 6 16 6 12-2 16-6c5-4 8-11 11-21 3-13 5-35 5-66s-2-53-5-64c-3-12-7-20-12-23-5-4-10-6-16-6zM3608 3173h-51v-192c-19 17-40 30-66 39v-46c13-4 28-13 43-25 16-12 26-26 32-42h41v267zm162-267c26 0 46 9 60 28 17 22 26 58 26 108s-9 87-26 109c-14 18-34 27-60 27s-47-10-62-30c-16-20-24-55-24-106 0-50 9-86 26-108 14-18 34-27 60-27zm0 42c-6 0-11 2-16 6s-8 11-11 21c-3 13-5 35-5 67 0 31 2 53 5 64 3 12 7 19 12 23s10 6 16 6 12-2 16-6c5-4 8-11 11-21 3-13 5-35 5-66s-2-53-5-64c-3-12-7-20-12-23-5-4-10-6-16-6zm206-42c26 0 46 9 60 28 17 22 26 58 26 108s-9 87-26 109c-14 18-34 27-60 27s-47-10-62-30c-16-20-24-55-24-106 0-50 9-86 26-108 14-18 34-27 60-27zm0 42c-6 0-11 2-16 6s-8 11-11 21c-3 13-5 35-5 67 0 31 2 53 5 64 3 12 7 19 12 23s10 6 16 6 12-2 16-6c5-4 8-11 11-21 3-13 5-35 5-66s-2-53-5-64c-3-12-7-20-12-23-5-4-10-6-16-6z"/><path fill="#b39451" d="M793 2945h519v59H793zM793 3094h519v59H793zM3543 1516h519v59h-519zM3543 1665h519v59h-519zM108 856h3662v231h-74V938H189v1928h149v74H108z"/><path fill="#b39451" d="M342 1034h3662v231h-74v-149H423v1928h149v74H342z"/></svg>