<svg xmlns="http://www.w3.org/2000/svg" width="512" height="512" viewBox="0 0 512 512"><g fill-rule="evenodd" clip-rule="evenodd"><path fill="#009FBE" d="M276.324 19.016l175.003 99.66c14.228 8.166 20.324 22.394 20.324 36.62v201.39c0 16.329-10.162 30.557-22.356 36.655L276.324 493c-12.195 8.131-28.454 8.131-40.684 0L60.708 391.309c-12.195-6.099-20.36-20.326-20.36-34.623v-201.39c0-16.26 10.197-30.486 24.424-36.62l170.868-99.66c14.263-8.131 28.489-8.131 40.684 0z"/><path fill="#D1D2D4" d="M276.324 19.016l77.305 44.749v20.359c0 132.216-105.758 238.01-238.01 238.01-26.421 0-50.847-4.065-75.271-12.195V155.295c0-16.26 10.197-30.486 24.424-36.62l170.868-99.66c14.263-8.13 28.489-8.13 40.684.001z" opacity=".7"/><path fill="#B2B2B2" d="M127.184 231.424h102.439l-13.143 39.153H113.756l13.428-39.153zm47.7-64.882h189.95c41.69 0 29.856 42.159 29.856 42.159H161.456l13.428-42.159zM120.33 335.461l13.615-42.162h233.707s-16.62 42.162-56.243 42.162H120.33zm213.986-126.76h60.374l-27.039 84.598h-60.564l27.229-84.598z"/><path fill="#FFF" d="M128.184 226.424h102.439l-13.143 39.153H114.756l13.428-39.153zm47.7-64.882h189.95c41.69 0 29.856 42.159 29.856 42.159H162.456l13.428-42.159zM121.33 330.461l13.615-42.162h233.707s-16.62 42.162-56.243 42.162H121.33zm213.986-126.76h60.374l-27.039 84.598h-60.564l27.229-84.598z"/><path fill="#FFF" d="M128.184 227.424h102.439l-13.143 39.153H114.756l13.428-39.153zm47.7-64.882h189.95c41.69 0 29.856 42.159 29.856 42.159H162.456l13.428-42.159zM121.33 331.461l13.615-42.162h233.707s-16.62 42.162-56.243 42.162H121.33zm213.986-126.76h60.374l-27.039 84.598h-60.564l27.229-84.598z"/></g></svg>